# xmcd CD database file
#
# Track frame offsets:
#	150
#	29620
#	55164
#	80426
#	107147
#	133198
#	182760
#
# Disc length: 3068 seconds
#
# Revision: 0
# Processed by: cddbd v1.5PL3 Copyright (c) Steve Scherf et al.
# Submitted via: CDex 1.51
#
DISCID=5d0bfa07
DTITLE=In-Di-Go - Cirrus
DYEAR=1999
DGENRE=New Age
TTITLE0=Cirrus
TTITLE1=Molnens Flykt
TTITLE2=Mistral
TTITLE3=Scirocco
TTITLE4=Cumulus
TTITLE5=Bortom Horisonten
TTITLE6=Svävande Blå
EXTD=YEAR: 1999
EXTT0=
EXTT1=
EXTT2=
EXTT3=
EXTT4=
EXTT5=
EXTT6=
PLAYORDER=
